<?xml version="1.0" encoding="utf-8"?>
<!-- Generator: Adobe Illustrator 24.1.2, SVG Export Plug-In . SVG Version: 6.00 Build 0)  -->
<svg version="1.1" id="Layer_1" xmlns="http://www.w3.org/2000/svg" xmlns:xlink="http://www.w3.org/1999/xlink" x="0px" y="0px"
	 viewBox="0 0 528.77 381.31" style="enable-background:new 0 0 528.77 381.31;" xml:space="preserve">
<style type="text/css">
	.st0{opacity:0.5;}
	.st1{fill:#1A1618;}
	.st2{fill:none;stroke:#1A1618;stroke-width:2;stroke-miterlimit:10;}
	.st3{fill:none;stroke:#000000;stroke-width:2;stroke-miterlimit:10;}
	.st4{fill:#1A1618;stroke:#1A1618;stroke-width:2;stroke-miterlimit:10;}
	.st5{stroke:#000000;stroke-width:2;stroke-miterlimit:10;}
	.st6{fill:#1A1618;stroke:#1A1618;stroke-width:4;stroke-miterlimit:10;}
	.st7{stroke:#000000;stroke-width:4;stroke-miterlimit:10;}
	.st8{font-family:'SegoeScript-Bold';}
	.st9{font-size:100.0135px;}
	.st10{fill:none;}
</style>
<g>
	<g>
		<g class="st0">
			<path class="st1" d="M190.97,106.85c-0.09,0.2-3.91-2.92-9.94-5.8c-5.88-2.81-12.13-4.74-18.64-5.66
				c-42.32-6.03-79.74,32.88-83.12,85.03c-0.53,8.22-0.64,14.85,0.09,21.18c0.07,0.6,0.28,1.64,0.17,3.04
				c-0.44,5.42-4.8,9.23-8.5,11.65c-1.7,0.94-5.02,2.41-9.17,1.82c-1.75-0.25-3.23-0.81-4.38-1.37c-1.48-0.88-2.34-1.93-2.85-2.71
				c-0.67-1.02-1.24-2.32-2.11-4.44c-1.02-2.51-1.24-2.38-1.53-3.56c-1.53-6.25-2.22-10.98-1.67-20.63
				C52.7,125.7,95.02,80.63,143.59,84.91c13.17,1.16,25.52,6.92,25.52,6.92C181.9,97.89,191.11,106.52,190.97,106.85z"/>
			<path class="st1" d="M220.78,244.18c-0.17-0.12-2.04,5.41-5.91,12.26c-3.77,6.68-8.22,12.82-13.32,18.21
				c-33.19,35.11-81.6,25.64-106.93-19.75c-3.99-7.16-6.94-13.15-9.05-19.46c-0.2-0.6-0.47-1.7-1.17-2.9
				c-2.71-4.67-8.06-5.13-12.24-4.76c-1.41,0.27-3.56,0.93-5.88,2.63c-2.69,1.98-4.4,4.47-5.34,6.06c-1.2,2.11-1.56,3.93-1.69,5.13
				c-0.1,0.92-0.05,1.46,0.17,5.3c0.24,4.19,0.15,3.9,0.24,4.33c1.4,6.79,2.85,11.61,7.48,20.06
				c28.59,52.29,83.8,63.97,123.03,26.09c10.64-10.27,18.59-24.18,18.59-24.18C216.97,258.72,221.04,244.38,220.78,244.18z"/>
			<path class="st1" d="M61.96,178.81L61.96,178.81z"/>
			<path class="st1" d="M74.77,228.61"/>
			<path class="st1" d="M192.63,262.68c-0.1-0.13,2.34-3.33,5.01-8.76c2.6-5.3,4.76-11.12,6.38-17.38
				c10.55-40.69-5.68-84.69-35.24-97.48c-4.66-2.01-8.47-3.32-12.25-3.75c-0.36-0.04-0.99-0.02-1.78-0.39
				c-3.06-1.42-4.53-6.41-5.31-10.5c-0.26-1.85-0.56-5.39,0.48-9.38c0.44-1.68,1-3.04,1.53-4.07c0.75-1.3,1.5-1.96,2.04-2.33
				c0.7-0.47,1.55-0.8,2.92-1.28c1.62-0.56,1.58-0.79,2.31-0.87c3.86-0.38,6.72-0.2,12.2,2.09c33.92,14.17,52.89,64.12,42.3,111.3
				c-2.87,12.79-8.26,23.94-8.26,23.94C199.32,255.35,192.79,262.88,192.63,262.68z"/>
		</g>
		<g>
			<g>
				<path d="M188.13,104.01c-0.09,0.2-3.91-2.92-9.94-5.8c-5.88-2.81-12.13-4.74-18.64-5.66c-42.32-6.03-79.74,32.88-83.12,85.03
					c-0.53,8.22-0.64,14.85,0.09,21.18c0.07,0.6,0.28,1.64,0.17,3.04c-0.44,5.42-4.8,9.23-8.5,11.65c-1.7,0.94-5.02,2.41-9.17,1.82
					c-1.75-0.25-3.23-0.81-4.38-1.37c-1.48-0.88-2.34-1.93-2.85-2.71c-0.67-1.02-1.24-2.32-2.11-4.44
					c-1.02-2.51-1.24-2.38-1.53-3.56c-1.53-6.25-2.22-10.98-1.67-20.63c3.39-59.69,45.71-104.76,94.29-100.48
					c13.17,1.16,25.52,6.92,25.52,6.92C179.07,95.05,188.28,103.69,188.13,104.01z"/>
				<path d="M217.95,241.35c-0.17-0.12-2.04,5.41-5.91,12.26c-3.77,6.68-8.22,12.82-13.32,18.21
					c-33.19,35.11-81.6,25.64-106.93-19.75c-3.99-7.16-6.94-13.15-9.05-19.46c-0.2-0.6-0.47-1.7-1.17-2.9
					c-2.71-4.67-8.06-5.13-12.24-4.76c-1.41,0.27-3.56,0.93-5.88,2.63c-2.69,1.98-4.4,4.47-5.34,6.06c-1.2,2.11-1.56,3.93-1.69,5.13
					c-0.1,0.92-0.05,1.46,0.17,5.3c0.24,4.19,0.15,3.9,0.24,4.33c1.4,6.79,2.85,11.61,7.48,20.06
					c28.59,52.29,83.8,63.97,123.03,26.09c10.64-10.27,18.59-24.18,18.59-24.18C214.14,255.89,218.21,241.54,217.95,241.35z"/>
				<path d="M59.13,175.98L59.13,175.98z"/>
				<path d="M71.93,225.78"/>
				<path d="M189.8,259.84c-0.1-0.13,2.34-3.33,5.01-8.76c2.6-5.3,4.76-11.12,6.38-17.38c10.55-40.69-5.68-84.69-35.24-97.48
					c-4.66-2.01-8.47-3.32-12.25-3.75c-0.36-0.04-0.99-0.02-1.78-0.39c-3.06-1.42-4.53-6.41-5.31-10.5
					c-0.26-1.85-0.56-5.39,0.48-9.38c0.44-1.68,1-3.04,1.53-4.07c0.75-1.3,1.5-1.96,2.04-2.33c0.7-0.47,1.55-0.8,2.92-1.28
					c1.62-0.56,1.58-0.79,2.31-0.87c3.86-0.38,6.72-0.2,12.2,2.09c33.92,14.17,52.89,64.12,42.3,111.3
					c-2.87,12.79-8.26,23.94-8.26,23.94C196.49,252.52,189.96,260.05,189.8,259.84z"/>
			</g>
		</g>
	</g>
	<g>
		<g class="st0">
			<path class="st2" d="M313.33,296.44"/>
		</g>
		<g>
			<path class="st3" d="M310.5,293.6"/>
		</g>
	</g>
	<g>
		<g class="st0">
			<path class="st4" d="M231.92,98.18h28.31v26.89c-3.29,0.36-8.14,1.36-12.96,4.33c-12.72,7.82-14.05,22.33-14.2,24.44
				C232.68,135.29,232.3,116.74,231.92,98.18z"/>
			<path class="st4" d="M231.92,179.66v131.99h51.32c0,0-15.57-3.67-21.24-23.63c-1.05-5.23-1.91-11.54-2.04-18.72
				c-0.07-3.51,0.05-6.79,0.27-9.8c0-40.47,0-80.93,0-121.4C260.23,138.11,236.16,133.22,231.92,179.66z"/>
			<path class="st4" d="M273.75,273.67h54.08v37.98h-29.6C298.23,311.65,272.57,307.43,273.75,273.67z"/>
		</g>
		<g>
			<g>
				<path class="st5" d="M229.08,95.35h28.31v26.89c-3.29,0.36-8.14,1.36-12.96,4.33c-12.72,7.82-14.05,22.33-14.2,24.44
					C229.85,132.45,229.46,113.9,229.08,95.35z"/>
				<path class="st5" d="M229.08,176.82v131.99h51.32c0,0-15.57-3.67-21.24-23.63c-1.05-5.23-1.91-11.54-2.04-18.72
					c-0.07-3.51,0.05-6.79,0.27-9.8c0-40.47,0-80.93,0-121.4C257.4,135.27,233.33,130.38,229.08,176.82z"/>
				<path class="st5" d="M270.92,270.83H325v37.98h-29.6C295.39,308.81,269.74,304.59,270.92,270.83z"/>
			</g>
		</g>
	</g>
	<g>
		<g class="st0">
			<polygon class="st6" points="318.05,123.72 350.09,140.13 395.19,163.23 473.24,125.68 396,94.74 323.74,120.37 			"/>
			<path class="st6" d="M348.45,178.9c0,0,30.6,37.2,93.07,4.6l0.5-42.8l-46.83,22.52l-45.1-23.1L348.45,178.9z"/>
		</g>
		<g>
			<g>
				<polygon class="st7" points="315.22,120.89 347.25,137.29 392.36,160.39 470.41,122.85 393.16,91.91 320.9,117.54 				"/>
				<path class="st7" d="M345.61,176.07c0,0,30.6,37.2,93.07,4.6l0.5-42.8l-46.83,22.52l-45.1-23.1L345.61,176.07z"/>
			</g>
		</g>
	</g>
	<g>
		<g class="st0">
			<text transform="matrix(0.8343 0 0 1 273.7151 262.6812)" class="st1 st8 st9">earn</text>
		</g>
		<g>
			<text transform="matrix(0.8343 0 0 1 270.8804 259.8465)" class="st8 st9">earn</text>
		</g>
	</g>
</g>
<rect y="14.98" class="st10" width="523.01" height="334.08"/>
</svg>
